<svg xmlns="http://www.w3.org/2000/svg" viewBox="0 0 64 64">
  <!-- Fond de l'espace -->
  <rect width="64" height="64" fill="#0B1026" rx="8" ry="8"/>
  
  <!-- Étoiles -->
  <circle cx="15" cy="12" r="1" fill="#FFFFFF" opacity="0.8"/>
  <circle cx="45" cy="8" r="1.2" fill="#FFFFFF" opacity="0.9"/>
  <circle cx="35" cy="15" r="0.8" fill="#FFFFFF" opacity="0.7"/>
  <circle cx="55" cy="25" r="1" fill="#FFFFFF" opacity="0.6"/>
  <circle cx="10" cy="50" r="1.2" fill="#FFFFFF" opacity="0.8"/>
  <circle cx="50" cy="52" r="0.9" fill="#FFFFFF" opacity="0.7"/>
  <circle cx="25" cy="55" r="1" fill="#FFFFFF" opacity="0.9"/>
  
  <!-- Station spatiale -->
  <g transform="translate(32, 32)">
    <!-- Module central -->
    <rect x="-12" y="-6" width="24" height="12" rx="3" ry="3" fill="#3A7CA5" stroke="#4DACF0" stroke-width="1.2"/>
    
    <!-- Panneaux solaires -->
    <rect x="-24" y="-8" width="10" height="16" fill="#6C90B9" stroke="#81A7D4" stroke-width="0.8"/>
    <rect x="14" y="-8" width="10" height="16" fill="#6C90B9" stroke="#81A7D4" stroke-width="0.8"/>
    
    <!-- Antenne -->
    <line x1="0" y1="-6" x2="0" y2="-14" stroke="#D1D7E0" stroke-width="1.5"/>
    <circle cx="0" cy="-14" r="2" fill="#D1D7E0"/>
    
    <!-- Ports d'amarrage -->
    <circle cx="-14" cy="0" r="2" fill="#252B42" stroke="#3A4366" stroke-width="0.8"/>
    <circle cx="14" cy="0" r="2" fill="#252B42" stroke="#3A4366" stroke-width="0.8"/>
    
    <!-- Hublots -->
    <circle cx="-6" cy="0" r="1.5" fill="#7DDDFF" opacity="0.9"/>
    <circle cx="0" cy="0" r="1.5" fill="#7DDDFF" opacity="0.9"/>
    <circle cx="6" cy="0" r="1.5" fill="#7DDDFF" opacity="0.9"/>
  </g>
  
  <!-- Logo "O" d'Orion au centre -->
  <circle cx="32" cy="32" r="6" fill="none" stroke="#FF5757" stroke-width="2"/>
  
  <!-- Orbite stylisée -->
  <ellipse cx="32" cy="32" rx="25" ry="15" fill="none" stroke="#3F51B5" stroke-width="1" opacity="0.4" transform="rotate(30, 32, 32)"/>
</svg>